<svg stroke='#274F44' xml:space="preserve" style="enable-background:new 0 0 1200 750;" viewBox="0 0 1200 750" y="0px" x="0px" xmlns:xlink="http://www.w3.org/1999/xlink" xmlns="http://www.w3.org/2000/svg" version="1.1">
<g id="bg">
</g>
<g id="graphic">
	<g>
		<g>
			<path d="M483.4,387c-9.7,0-19.4-1.3-29.3-4c-26.9-7.2-43.9-22.5-61.9-38.6c-11.3-10.2-23.1-20.7-37.5-29.1
				c-14.1-8.2-32.8-14.8-57-20.1c-21-4.6-42.6-7.5-59.9-9.9c-26.9-3.6-50-5.1-70.6-4.4c-27.7,0.8-51,5.6-69.2,14.1
				c-14.7,6.9-25.7,15.9-36.3,24.7c-12.1,10-23.6,19.5-39.5,25.1c-5.6,3.2-13,5.8-23.6,7.7c-22.6,4.1-48.8-0.9-79.9-15.5
				c-4.4-2-8.7-4.2-13-6.5c-33.9-15.5-66.5-37.6-95.5-57.3c-9.7-6.6-19-12.9-27.8-18.6l0.1-0.2c16.9,8.5,36.1,21.2,56.4,34.7
				c21.7,14.4,44.1,29.3,66.9,41.2c34.3,15.7,70,24.6,104.8,17.5c4.1-0.8,7.9-1.9,11.5-3.2c9.2-5.2,13.5-12.1,18.6-20.4
				c5.1-8.3,11-17.7,23.4-28.3c12.9-11,29.1-18.3,49.7-22.4c18.1-3.5,37-4.2,55.3-4.7c1.2,0,2.5-0.1,3.7-0.1
				c23.4-0.8,44.9,0,65.8,2.2c20.6,2.2,40.1,5.9,59.5,11.3c36.5,10,72.2,25.8,112.4,49.6c41.3,24.5,80.6,33,123.7,27
				c18.3-2.6,36.6-7.6,55-14.2c15.5-9.4,31.6-18.6,48.7-25.4c17.2-6.8,33.7-12.7,49.6-18.4c18-6.5,35.3-12.7,52.2-19.6
				c32.9-14.9,63.5-31.8,94.9-58.7c10.5-9,20.7-18.7,30.6-28c25.2-23.9,49.1-46.5,75.9-56.4c14.4-5.3,28.4-6.5,42.9-3.7
				c16.1,3.1,32.6,11.1,50.3,24.3c9.4,7.1,17.3,16.8,24.7,26.9c0.6,0.6,1.1,1.3,1.7,1.9c15.5,16.9,30.2,33,56.4,43.2
				c15.2,6,31.4,9.6,47.7,12.4c5.9-0.5,12-1.2,18.1-1.9c24.6-2.7,50-5.5,73.6,1c9.8,2.7,19.6,6.5,29,10.2
				c16.5,6.5,33.6,13.1,51.6,14.3c11.8,0.7,26.3-3.4,41.6-7.8c14-4,28.5-8.2,41.7-8.7c14.9-0.5,25.9,3.9,33.6,13.5l0.1,0.2l-0.2,0
				c-16.6-0.8-31.3,6.4-46.8,14c-17.4,8.5-35.5,17.3-57.5,15.3c-22.6-2-43.8-11.1-64.3-19.9c-10.3-4.4-21-9-31.7-12.6
				c-20.9-7-43.2-10.3-64.8-13.6c-8-1.2-16-2.4-24-3.8c-18.7,1.6-36.3,1.8-52.1-3.8c-21-7.5-34.5-26.5-47.5-45
				c-2.1-2.9-4.2-5.9-6.3-8.8c-10-10.9-20.5-22.1-34.7-32c-15.1-10.5-29.5-16.3-44-17.8c-13-1.4-25.8,0.7-39.1,6.4
				c-24.8,10.5-47.6,32-69.7,52.8c-10.2,9.6-20.8,19.6-31.4,28.2c-22.9,18.7-46.6,33.6-74.7,46.9c-8.4,4-16.8,7.6-25.4,11.1
				c-13.5,6.1-27.4,12-41.9,18c-9.7,4.1-19.8,8.3-30.1,12.8c-5.1,2.2-10.2,4.4-15.2,6.6c-21.6,9.5-42.7,18.7-63.4,26
				c-2.6,1.6-5.2,3.1-7.7,4.7c-20,12.2-38.9,23.7-59.6,30.8c-11.1,3.8-21.7,6-32.3,6.6C487.6,386.9,485.5,387,483.4,387z
				 M176.8,280.6c18.2,0,38.3,1.5,61.1,4.6c17.3,2.3,38.8,5.2,59.9,9.9c24.2,5.3,42.9,11.9,57.1,20.1c14.5,8.4,26.2,18.9,37.5,29.1
				c18,16.2,35,31.4,61.8,38.6c12.1,3.2,23.7,4.5,35.6,3.8c10.6-0.6,21.1-2.8,32.2-6.6c20.7-7.1,39.6-18.6,59.6-30.8
				c2.3-1.4,4.6-2.8,6.9-4.2c-18.2,6.4-36.1,11.4-54.1,13.9c-43.2,6-82.5-2.6-123.9-27.1c-40.2-23.8-75.9-39.5-112.3-49.6
				c-19.4-5.3-38.8-9-59.4-11.2c-20.9-2.3-42.4-3-65.7-2.2c-1.2,0-2.5,0.1-3.7,0.1c-18.3,0.6-37.2,1.2-55.2,4.7
				c-20.5,4-36.8,11.3-49.6,22.3c-12.4,10.6-18.2,20-23.3,28.3c-5,8-9.1,14.7-17.7,19.9c15.3-5.7,26.6-15,38.4-24.7
				c10.6-8.8,21.7-17.9,36.3-24.8c18.2-8.5,41.5-13.2,69.3-14.1C170.4,280.6,173.5,280.6,176.8,280.6z M-90.9,332.1
				c3.2,1.7,6.5,3.3,9.8,4.8c31.1,14.5,57.2,19.6,79.8,15.5c9.9-1.8,17-4.2,22.4-7.1c-3.3,1.1-6.7,2.1-10.4,2.8
				C-23,354.9-57.6,346.8-90.9,332.1z M735.1,283.3c-15.4,6.2-31.2,11.8-47.5,17.7c-16,5.7-32.4,11.7-49.6,18.4
				c-16.8,6.6-32.6,15.7-47.9,24.9c20.4-7.3,41.2-16.4,62.5-25.7c4.9-2.2,10.1-4.4,15.2-6.6c10.3-4.5,20.4-8.7,30.1-12.8
				C710.8,293.8,723.1,288.7,735.1,283.3z M-215.8,255.5c8.3,5.4,17,11.3,26.2,17.6c28.1,19,59.4,40.3,92.1,55.7
				c-21.6-11.6-42.9-25.7-63.6-39.5C-180.8,276.3-199.3,264-215.8,255.5z M1165.6,243.3c7.8,1.3,15.6,2.5,23.3,3.6
				c21.6,3.2,44,6.5,64.8,13.6c10.7,3.6,21.3,8.2,31.7,12.6c20.5,8.8,41.7,17.9,64.2,19.9c22,2,40-6.8,57.4-15.3
				c15.5-7.6,30.2-14.7,46.7-14c-7.7-9.5-18.6-13.8-33.3-13.3c-13.1,0.5-27.6,4.6-41.6,8.7c-15.3,4.4-29.8,8.6-41.7,7.8
				c-18-1.1-35.1-7.8-51.6-14.3c-9.5-3.7-19.2-7.5-29-10.2c-23.6-6.5-49-3.7-73.6-1C1177.1,242.2,1171.3,242.8,1165.6,243.3z
				 M969.1,133.2c-9.3,0-18.5,1.7-27.8,5.1c-26.8,9.8-50.6,32.4-75.8,56.3c-9.8,9.3-20,19-30.6,28c-29.9,25.6-59.1,42.1-90.1,56.5
				c6.9-2.9,13.7-5.9,20.4-9.1c28.1-13.3,51.8-28.2,74.6-46.9c10.5-8.6,21.1-18.6,31.4-28.2c22.1-20.8,44.9-42.3,69.8-52.8
				c13.4-5.7,26.2-7.8,39.2-6.4c14.6,1.5,29.1,7.4,44.1,17.9c13.6,9.5,23.9,20.2,33.5,30.6c-7.1-9.6-14.6-18.7-23.5-25.4
				c-17.6-13.2-34.1-21.2-50.2-24.3C979,133.6,974.1,133.2,969.1,133.2z M1060.1,187.1c1.8,2.5,3.5,4.9,5.3,7.4
				c13,18.4,26.5,37.4,47.4,44.9c15.6,5.6,32.9,5.5,51.3,3.9c-16.1-2.8-32-6.4-47-12.3c-26.3-10.3-40.9-26.3-56.4-43.3
				C1060.4,187.5,1060.2,187.3,1060.1,187.1z"></path>
		</g>
		<g>
			<path d="M546.2,595.1c-18.4-0.6-37.9-5.1-59-14.9c-31.2-14.5-47.5-38.2-63.3-61.1c-20.4-29.5-39.6-57.4-88.4-62
				c-39.2-3.7-77.2,7.6-113.9,18.4c-28.5,8.4-57.9,17.2-87.6,18.8c-6.2,0.3-12.3,0.4-18.4,0.2c-79.1-2.5-151.2-47.5-213.2-90.2
				l0.1-0.2c20.1,8.6,40.2,20,61.5,32.1c25.1,14.3,51.1,29,77.7,39.1c30,11.4,56.9,15.3,82.2,11.9c29.5-4,55.4-13.4,80.4-22.5
				c18.4-6.7,37.4-13.6,57.4-18.1c22.4-5.1,43.9-6.7,65.6-4.9c32.7,2.7,79.6,9.6,109,37.7c12.4,11.8,20.9,26.8,29.1,41.4
				c10.7,18.9,21.8,38.5,41.7,51.6c15.3,10.1,30.2,16.1,45.4,18.2c13.6,1.9,27.1,0.7,41.5-3.6c26.7-8.1,51.2-25.6,77.2-44.1
				c9.7-6.9,19.7-14,29.7-20.6c33.5-21.8,71.7-35.6,108.7-48.9c30.7-11.1,62.5-22.6,91.6-38.6c24.5-13.5,45.3-28,63.6-40.8
				c28.8-20.1,53.6-37.5,81.5-43.1c14.7-3,29.5-2.6,45.3,1.2c17.2,4.1,35.6,12.2,56.3,24.7c34.3,20.7,69.8,36.7,111.7,50.4
				c37.5,12.2,75.8,21.1,116.4,30.6c11.4,2.6,23.1,5.4,35,8.2c7.4,1.8,14,3.8,20.4,5.8c10.4,3.2,20.1,6.2,30.4,7
				c11.3,0.9,22.2-0.8,34.1-5.5c8.8-3.4,16.1-10.4,23.2-17.1c8.6-8.2,16.7-15.9,26.2-15.6c0.1,0,0.1,0,0.2,0
				c6.8,0.3,13.7,4.6,21.3,13.3l0.2,0.2l-0.3-0.1c-19.7-4.9-34.4,8.1-49.8,21.8c-10.5,9.3-21.3,18.9-34.5,23.8
				c-14.1,5.2-28.2,7.8-42.9,7.9c-13.1,0.1-26.7-1.7-43-5.6c-33.4-8-69.5-18.2-104.4-29.6c-37.7-12.2-73.2-25.5-102.8-38.4
				c-18.4-8-34.2-16-48.2-23c-28.4-14.3-50.9-25.6-75.8-27.7c-12.9-1.1-26.2,0.4-40.7,4.4c-15.3,4.3-32.3,11.6-52.1,22.3
				c-40.5,22-84,38.7-126.1,54.9c-44.2,17-89.8,34.5-131.6,58c-12.5,7-24.7,14.6-36.6,22C635.7,571.3,594.7,596.7,546.2,595.1z
				 M325.5,456.4c3.3,0.1,6.7,0.3,10.1,0.6c48.9,4.6,68.1,32.5,88.5,62.1c15.8,22.9,32.1,46.5,63.2,61
				c76.4,35.6,132.1,1.1,191.1-35.4c11.9-7.3,24.1-14.9,36.6-22c41.7-23.5,87.4-41.1,131.6-58.1c42.1-16.2,85.6-32.9,126.1-54.9
				c19.8-10.7,36.8-18,52.1-22.3c14.5-4,27.8-5.5,40.7-4.4c24.9,2.1,47.4,13.4,75.8,27.7c14,7,29.8,15,48.2,23
				c29.6,12.9,65.2,26.2,102.8,38.4c34.9,11.3,71.1,21.6,104.4,29.6c16.2,3.9,29.8,5.7,42.9,5.5c14.8-0.1,28.8-2.7,42.9-7.9
				c13.1-4.8,24-14.4,34.4-23.7c15.4-13.7,30-26.6,49.7-21.9c-7.4-8.4-14.3-12.7-20.9-13c-0.1,0-0.1,0-0.2,0
				c-9.5-0.3-17.5,7.4-26.1,15.6c-7.1,6.8-14.4,13.7-23.2,17.2c-12,4.7-22.9,6.4-34.2,5.5c-10.2-0.9-20-3.9-30.4-7
				c-6.4-2-13-4-20.4-5.8c-11.9-2.8-23.6-5.6-35-8.2c-40.6-9.4-78.9-18.4-116.4-30.6c-41.9-13.6-77.4-29.6-111.7-50.4
				c-20.7-12.5-39.1-20.6-56.3-24.7c-15.8-3.8-30.6-4.2-45.2-1.2c-27.8,5.6-52.7,23-81.4,43.1c-18.3,12.8-39.1,27.4-63.6,40.8
				c-29.1,16-60.9,27.5-91.6,38.6c-36.9,13.3-75.2,27.1-108.6,48.9c-10,6.5-20,13.7-29.7,20.6c-26,18.5-50.5,36-77.3,44.1
				c-14.4,4.4-28,5.5-41.6,3.6c-15.2-2.2-30.1-8.1-45.5-18.3c-19.9-13.1-31-32.7-41.8-51.7c-8.2-14.5-16.7-29.5-29.1-41.3
				c-29.4-28.1-76.2-34.9-108.9-37.6c-21.7-1.8-43.2-0.2-65.6,4.9c-20,4.6-39,11.4-57.4,18.1c-25.1,9.1-51,18.5-80.4,22.5
				c-13.6,1.8-27.2,1.6-41.8-0.7c-12.9-2.1-26.2-5.7-40.5-11.2c-26.6-10.1-52.6-24.9-77.7-39.1c-20.9-11.9-40.8-23.1-60.6-31.7
				c66.5,45.8,144.7,94,230.6,89.4c29.7-1.6,59.1-10.3,87.6-18.8C255.1,465.5,289.8,455.2,325.5,456.4z"></path>
		</g>
		<g>
			<path d="M188.6,172.7c-10.3-1-20-3.6-29.6-8c-8.8-4-17.4-9.4-26.1-16.4c-16.2-13.2-30.2-29.8-45-47.3
				C64.5,73.2,40.3,44.5,6.5,30.4c-9.4-3.9-21.9-6.9-35.1-10.1C-46,16.1-65.8,11.4-82,3.5c-18.6-9-29.7-20.8-34-36.1
				c-0.1-0.4,0-0.8,0.3-1.1c3.3-3.1,35,6.4,94.1,28c2.7,1,4.5,1.7,5.1,1.9C-1.8,1.2,15.7,4,32.6,6.8c21.5,3.5,43.7,7.1,60.8,15.1
				c30.4,14.3,43.4,42.4,55.9,69.5c7,15.2,14.3,30.9,24.5,43.4c5.5,6.8,11.4,12.2,18,16.5c7.4,4.8,15.6,8.3,25,10.4
				c45.8,10.5,113.2-15.3,172.6-38c29.3-11.2,56.9-21.8,79.5-27.1c31.7-7.5,65.3-17.4,97.7-26.9C625.7,52.2,687,34.1,744.7,27.9
				c18.1-2,36.1-2,54.9-0.1c0.3,0,0.6,0.1,0.8,0.1c17,1.7,34.4,5,53,10c34.6,9.3,68.6,23.3,101.4,36.8c33.9,14,69,28.4,104.8,37.7
				c16.8,4.3,32.6,7.3,48,8.9c6.8,0,13.6-0.3,20.3-0.9c25.4-2,51.1-4.6,76.8-7.4c13.7-3.7,29.9-8.4,48-13.8
				c56.9-16.7,127.8-37.5,188.9-45.8c33.2-4.5,60.3-4.8,80.4-0.8c11.3,2.3,20.7,5.9,28,10.9c7.7,5.3,13.3,12.2,16.5,20.6l0,0.1
				l-0.1,0c-36.9,6.8-76.4,6.8-114.6,6.8c-31.2,0-63.6,0-94.5,3.7c-18.3,2.2-37.1,4.5-55.2,6.8c-32,4-64.7,8.1-97.4,11.7
				c-13.5,3.6-24.5,6.3-32.4,7.4c-19.1,2.7-38.1,3.2-57.9,1.6c-2.3-0.2-4.6-0.4-6.9-0.6c-10.8,0-21.8-0.6-33.1-1.8
				c-16.4-1.8-33.2-4.9-51.3-9.6c-33.6-8.6-66.6-21.2-98.5-33.4c-38.7-14.7-78.6-30-118.8-37.6c-21.6-4.1-41.6-5.7-61.2-5
				c-21.9,0.8-42.8,4.5-63.8,11.3c-81.8,26.5-162.5,50.5-246.5,73.2c-17.8,4.8-37.2,10.9-57.7,17.4
				c-61.9,19.6-132.1,41.7-187.3,36.8C189.3,172.8,188.9,172.8,188.6,172.7z M-111.4-34c-2.2-0.2-3.6-0.1-4.2,0.4
				c-0.2,0.2-0.3,0.5-0.2,0.9c4.3,15.2,15.4,27,33.9,36c16.2,7.9,35.9,12.6,53.3,16.8c13.2,3.2,25.7,6.2,35.1,10.1
				c33.8,14.1,58.1,42.9,81.5,70.7c14.8,17.6,28.8,34.2,45,47.3c8.7,7.1,17.2,12.4,26,16.4c9.9,4.5,19.8,7.1,30.5,8
				c55.1,4.9,125.3-17.3,187.2-36.8c20.6-6.5,40-12.6,57.7-17.4c84.1-22.8,164.7-46.7,246.5-73.2c21-6.8,41.9-10.5,63.9-11.3
				c19.6-0.7,39.6,1,61.2,5c40.2,7.6,80.2,22.9,118.8,37.6c31.9,12.2,64.8,24.7,98.4,33.3c18.1,4.6,34.9,7.8,51.3,9.6
				c10.7,1.2,21,1.8,31.3,1.8c-14.9-1.7-30.1-4.5-46.2-8.7c-35.8-9.3-70.9-23.7-104.9-37.7C922,61.3,888.1,47.3,853.4,38
				c-18.6-5-36-8.3-53-10c-0.3,0-0.6-0.1-0.8-0.1c-18.8-1.9-36.7-1.8-54.9,0.1c-57.7,6.2-119,24.3-178.2,41.7
				c-32.4,9.6-66,19.4-97.7,26.9c-22.5,5.3-50.2,15.9-79.5,27.1c-59.5,22.8-126.9,48.6-172.7,38c-9.4-2.2-17.6-5.6-25.1-10.4
				c-6.6-4.3-12.5-9.7-18-16.5c-10.2-12.6-17.5-28.3-24.5-43.5c-12.5-27.1-25.5-55.1-55.8-69.4C76.2,14.1,54,10.4,32.5,7
				C15.7,4.2-1.8,1.4-16.5-3.6c-0.6-0.2-2.4-0.9-5.1-1.9C-31.3-9-53.8-17.2-74.2-23.9C-92.8-30-105.2-33.4-111.4-34z M1109.6,121.4
				c1.7,0.2,3.4,0.3,5.1,0.5c19.8,1.6,38.8,1.1,57.9-1.6c7.6-1.1,18.2-3.6,31.1-7c-25.3,2.8-50.5,5.3-75.5,7.3
				C1122,121,1115.8,121.3,1109.6,121.4z M1509.1,50.8c-18.2-1.8-40.7-0.9-67.2,2.7c-61.1,8.3-132,29.1-188.9,45.8
				c-17.6,5.2-33.4,9.8-46.8,13.4c32.2-3.6,64.5-7.6,96.1-11.6c18.1-2.3,36.9-4.6,55.2-6.8c30.9-3.7,63.2-3.7,94.5-3.7
				c38.1,0,77.6,0,114.5-6.8c-3.2-8.3-8.7-15.1-16.3-20.4c-7.2-4.9-16.6-8.6-27.9-10.8C1518.1,51.9,1513.7,51.3,1509.1,50.8z"></path>
		</g>
		<g>
			<path d="M680.4,733c-7.5-1.5-15.2-3.1-22.8-4.5c-10.6-2-21.5-3.8-32-5.5c-33-5.5-67-11.3-99.6-21.9c-21-6.9-41.3-18.6-61-30
				c-22.1-12.8-45-26.1-68.7-32.1c-49.2-12.5-106.3,4.1-156.7,18.7c-14.5,4.2-28.1,8.2-41.1,11.3c-31.4,7.7-56.1,7.4-77.6-0.9
				c-19.4-7.4-34.3-20.6-50.1-34.6c-10-8.9-20.4-18-32.7-26.5c-13.9-9.6-28.3-16.9-43.8-22.2c-16.7-5.7-35.1-9-54.8-10
				c-17.7-0.9-36.9,0.1-57.1,3c-32.9,4.8-68.5,14.4-108.9,29.4l-0.1,0l0-0.1c-5.2-10.9-5-20,0.5-27.2c5.7-7.3,17-12.6,33.6-15.8
				c13.8-2.6,31.3-3.9,51.9-3.6c39.6,0.5,76.5,6.1,86.3,8.1c30.5,6,60.2,19.8,88.9,33.1c17.9,8.3,36.5,17,54.8,23.5
				c20.5,7.3,38.7,11.1,55.7,11.7c35.9,1.3,71.5-7.5,106-16c39.7-9.8,80.8-19.9,123.5-15.3c20.9,2.3,42.9,8.2,67.1,18.1
				c21.6,8.9,43.2,20.1,64.1,30.9c37.3,19.4,75.8,39.4,118.2,48.2c5.9,1.2,11.8,2.5,17.5,3.8c31.4,6.8,61.1,13.3,86.9,9.4
				c13.8-2.1,25.4-6.9,35.4-14.8c11.2-8.8,20.3-21.1,28-37.8c4.9-10.8,8.2-20.5,11.1-29.1c1.8-5.4,3.6-10.5,5.5-15.3
				c0.3-2.3,0.7-4.5,1.2-6.7c2.7-10.4,9.1-19.4,20.1-28.2c8.2-6.5,18.3-11,30.2-13.1c10.3-1.9,22.2-2.1,35.5-0.8
				c24.5,2.5,49.7,10.1,69.9,16.1c3.8,1.1,7.4,2.2,10.8,3.2c10.5,3,21.2,6.3,31.6,9.4c31.6,9.4,63.9,19.1,96.6,26.3
				c14.6,2.1,29.3,3.7,44,4.5c27.7,1.5,53.6,0.1,76.7-4.4c26.2-5,50.1-13.9,71.2-26.6c14.6-8.8,26.8-19.1,38.5-29.1
				c15.6-13.3,30.3-25.9,50.2-34.7c12.2-5.4,24.4-8.3,36.2-11.1c21.4-5,41.6-9.8,60-28.4l0.4-0.4l-0.2,0.5
				c-13.6,31.3-55.1,60.5-87.6,79.4c-41.4,24.1-85.2,41.8-110.1,49.7c-22.3,7-45.1,11-69.7,12.1c-21.9,1-44.6-0.3-69.5-3.9
				c-13.4-1.9-26.8-4.5-40.1-7.4c-36.7-5.4-72.9-14.3-107.3-23.6c-9.7-2.6-19.7-5.8-30.3-9.2c-18.8-6.1-38.2-12.3-57.6-15.5
				c-22-3.6-40.7-2.6-56.9,3.1c-16.3,5.7-26.9,12.6-34.4,22.3c-3.8,5-6.7,10.5-9.1,16.6c-0.9,7.4-0.3,15,0.3,23
				c0.7,9.8,1.6,21-0.1,33.4c-3.7,27.1-12.5,45.3-27,55.6c-8.4,6-18.3,9-29.2,10.1C731.5,743.4,706.4,738.3,680.4,733z M803,634.5
				c-2.9,8.6-6.2,18.4-11.2,29.1c-7.6,16.7-16.8,29.1-28,37.9c-10.1,7.9-21.7,12.8-35.5,14.9c-25.8,3.9-55.5-2.6-87-9.4
				c-5.7-1.2-11.6-2.5-17.5-3.8c-42.4-8.8-81-28.8-118.3-48.2c-20.9-10.8-42.4-22.1-64.1-30.9c-24.2-9.9-46.2-15.8-67.1-18.1
				c-42.6-4.6-83.7,5.5-123.4,15.3c-34.5,8.5-70.1,17.3-106,16c-16.9-0.6-35.2-4.4-55.7-11.7c-18.3-6.5-36.9-15.1-54.8-23.5
				c-6.8-3.2-13.7-6.4-20.6-9.5c24.2,11.6,41.5,26.9,57.1,40.7c15.8,13.9,30.7,27.1,50.1,34.5c21.5,8.3,46.1,8.5,77.5,0.9
				c13-3.2,26.7-7.1,41.1-11.3c50.4-14.6,107.6-31.2,156.8-18.7c23.7,6,46.6,19.3,68.8,32.1c19.6,11.3,39.9,23.1,60.9,30
				c32.6,10.7,66.6,16.4,99.6,21.9c10.5,1.8,21.3,3.6,32,5.5c7.6,1.4,15.4,3,22.8,4.5c39.5,8.1,76.7,15.7,101.2-1.7
				c14.5-10.3,23.3-28.4,26.9-55.5c1.7-12.4,0.8-23.5,0.1-33.3c-0.6-7.8-1.2-15.2-0.4-22.4C806.4,624.5,804.8,629.4,803,634.5z
				 M1421.2,524.3c-11.8,2.8-24.1,5.7-36.2,11.1c-19.8,8.8-34.5,21.4-50.1,34.7c-11.7,10-23.9,20.4-38.5,29.2
				c-21.1,12.7-45.1,21.6-71.3,26.6c-23.2,4.4-49,5.9-76.8,4.4c-13.8-0.8-27.5-2.2-41.3-4.1c12.4,2.7,24.9,5,37.4,6.8
				c24.9,3.6,47.6,4.9,69.5,3.9c24.6-1.1,47.4-5.1,69.6-12.1c24.9-7.8,68.6-25.5,110-49.7c58.2-33.9,79.6-61.5,87.3-78.8
				C1462.6,514.5,1442.5,519.3,1421.2,524.3z M859.9,571.3c-11.8,2.2-22,6.6-30.1,13.1c-10.9,8.8-17.3,17.7-20,28.1
				c-0.5,2-0.9,4-1.1,6c2.4-5.8,5.2-11.2,8.9-16c7.5-9.7,18.1-16.6,34.5-22.3c16.3-5.7,35-6.7,57-3.1c19.4,3.2,38.9,9.5,57.7,15.5
				c10.6,3.4,20.5,6.6,30.3,9.2c33.6,9,68.8,17.7,104.5,23.1c-31.7-7.1-63.1-16.5-93.8-25.7c-10.4-3.1-21.1-6.3-31.6-9.4
				c-3.4-1-7-2.1-10.8-3.2c-20.2-6.1-45.4-13.6-69.9-16.1c-10.1-1-19.4-1.1-27.7-0.3C865,570.5,862.4,570.9,859.9,571.3z
				 M-192.5,564.5c-16.6,3.2-27.9,8.5-33.5,15.7c-5.5,7.1-5.7,16.1-0.5,26.9c40.4-15,76-24.6,108.9-29.4c20.2-2.9,39.4-3.9,57.1-3.1
				c19.7,1,38.2,4.4,54.8,10c3,1,5.8,2.1,8.6,3.2c-18.8-8.1-38-15.1-57.4-18.9c-9.8-1.9-46.6-7.5-86.2-8.1
				c-13.3-0.2-25.3,0.3-35.8,1.3C-182.3,562.8-187.6,563.5-192.5,564.5z"></path>
		</g>
	</g>
</g>
<g id="text">
</g>
</svg>