<svg class="w-6 h-6" xmlns="http://www.w3.org/2000/svg" width="62" height="62" viewBox="0 0 32 32"><path d="M27.442,22.75A10.653,10.653,0,0,0,31,15C31,8.373,24.284,3,16,3S1,8.373,1,15,7.716,27,16,27a18.516,18.516,0,0,0,3.6-.362L28,30Z" fill="none" stroke="#F2C66DFF" stroke-linecap="square" stroke-miterlimit="10" stroke-width="2"></path><path d="M21.041,10.992A3.206,3.206,0,0,0,16,11.515a3.207,3.207,0,0,0-5.042-.523,3.473,3.473,0,0,0,0,4.79L16,21l5.042-5.218A3.471,3.471,0,0,0,21.041,10.992Z" fill="none" stroke="#F2C66DFF" stroke-linecap="square" stroke-miterlimit="10" stroke-width="2" data-color="color-2"></path></svg>